<?xml version="1.0" encoding="UTF-8"?>
<svg id="Layer_2" data-name="Layer 2" xmlns="http://www.w3.org/2000/svg" xmlns:xlink="http://www.w3.org/1999/xlink" viewBox="0 0 80.68 100.64">
  <defs>
    <style>
      .cls-1 {
        fill: url(#linear-gradient-2);
      }

      .cls-2 {
        fill: url(#linear-gradient-3);
      }

      .cls-3 {
        fill: url(#linear-gradient);
      }
    </style>
    <linearGradient id="linear-gradient" x1="0" y1="50.32" x2="80.68" y2="50.32" gradientUnits="userSpaceOnUse">
      <stop offset="0" stop-color="#a653fd"/>
      <stop offset="1" stop-color="#fe3d9f"/>
    </linearGradient>
    <linearGradient id="linear-gradient-2" x1="45.97" y1="34.94" x2="62.09" y2="34.94" xlink:href="#linear-gradient"/>
    <linearGradient id="linear-gradient-3" x1="18.14" y1="34.94" x2="34.27" y2="34.94" xlink:href="#linear-gradient"/>
  </defs>
  <g id="Layer_1-2" data-name="Layer 1">
    <g>
      <path class="cls-3" d="M30.31,1.16C2.25,7.94-8.38,38.49,7.18,62.41c8.27,12.72,20.11,24.57,29.08,36.9,7.56,4.86,11.61-4.74,15.36-9.46,8.47-10.67,23.28-26.37,27.26-39.19C88.19,20.69,59.71-5.94,30.31,1.16ZM51.23,65.25c-.33,4.96-6.34,11.92-9.72,15.56-.29.31-1.31,1.5-1.69,1.23-4.27-6.5-13.58-13.08-9.62-22.1,4.66-10.64,21.83-6.8,21.04,5.31ZM46.45,46.27c-1.49-1.18-4.72-5.73-6.2-5.86-1.23-.11-4.58,4.5-5.84,5.55-9.83,8.17-25.03.96-23.88-12.17.64-7.3,7.17-13.48,14.42-13.94,3.75-.24,7.2,1.3,10.08,3.61.96.77,4.57,4.94,5.25,4.94.83,0,3.18-3.26,4-4.03,8.23-7.73,20.18-4.81,24.57,5.35,5.99,13.84-10.91,25.62-22.4,16.54Z"/>
      <path class="cls-1" d="M52.99,28.16c-1.45.26-5.88,4.38-6.72,5.62-.21.31-.37.45-.26.88.09.33,3.96,4.66,4.47,5.12,7.24,6.53,15.24-3.39,9.84-9.53-1.86-2.11-4.63-2.58-7.33-2.08Z"/>
      <path class="cls-2" d="M28.61,28.64c-7.43-3.22-13.92,5.68-8.43,11.36,2.27,2.35,6.28,2.53,8.84.58.74-.57,5.07-5.34,5.19-5.94.06-.28.08-.5,0-.78-.18-.65-4.76-4.85-5.6-5.21Z"/>
    </g>
  </g>
</svg>